<svg width="99" height="136" viewBox="0 0 99 136" fill="none" xmlns="http://www.w3.org/2000/svg">
<path d="M12.6968 21.2444C12.6968 21.2444 14.9835 19.1407 19.2824 22.8908L21.2947 19.7809C21.2947 19.7809 16.447 15.9393 12.6968 21.2444Z" fill="#6078BA"/>
<path d="M20.5628 12.0978C20.5628 12.0978 17.9103 15.3906 21.7519 19.2322L19.1908 21.8847C19.1908 21.8847 13.2455 14.5674 20.5628 12.0978Z" fill="#6078BA"/>
<path d="M9.58661 101.827C14.2514 94.6008 21.6602 92.5885 21.6602 92.5885L39.3133 86.0029H56.2347L73.8877 92.5885C73.8877 92.5885 81.2966 94.6008 85.9614 101.827H9.58661Z" fill="#B6E1F8"/>
<path d="M70.8693 136.218H98.2179C98.2179 131.553 97.9435 124.876 97.9435 124.876C96.2971 96.8873 75.9915 92.4969 75.9915 92.4969C60.0762 88.6553 68.7656 113.26 68.7656 113.26C68.3082 119.205 69.1314 127.163 70.8693 136.218Z" fill="#58C3E7"/>
<path d="M59.3447 69.4474H36.2036V92.0397H59.3447V69.4474Z" fill="#B6E1F8"/>
<path d="M59.4362 79.9661V69.4474H36.2036V74.661C42.8807 80.149 50.8383 80.8807 59.4362 79.9661Z" fill="#83D0F3"/>
<path d="M84.132 136.218C84.5894 124.053 84.4064 120.669 84.315 116.553C84.0406 107.315 82.1198 99.4486 75.9915 92.5886L59.436 87.192C59.436 87.192 62.9117 93.3203 47.7282 93.3203C47.7282 93.3203 37.7584 92.9544 36.2949 87.192L19.465 92.5886C19.465 92.5886 5.10473 96.1558 2.63513 111.248L11.0501 126.797L10.7757 136.31H84.132V136.218Z" fill="#6078BA"/>
<path d="M77.4552 41.1842C78.0955 35.9706 76.9979 31.0314 77.0894 25.9092C77.0894 22.4335 76.4491 17.3113 72.1502 16.854C66.2048 16.2137 64.3755 26.458 64.0096 30.9399C63.5523 37.0682 65.0158 43.6538 66.2048 49.5991C66.6622 51.7943 66.5707 56.0932 69.0403 57.0994C71.144 58.014 73.2478 55.9103 74.3454 54.3554C76.9064 50.5138 76.9064 45.5746 77.4552 41.1842Z" fill="#6078BA"/>
<path d="M73.065 66.3376C70.6868 75.4843 66.5708 78.0453 66.5708 78.0453L60.9913 79.143C57.79 78.7771 52.302 77.4051 52.302 77.4051C39.6796 73.1061 36.0209 71.9171 34.0086 67.1608C34.0086 66.8864 24.1302 32.5864 24.1302 32.5864C22.4838 14.9333 40.9601 11.2746 43.7956 10.8173C46.5396 10.177 64.1927 5.32927 69.3148 22.2506C69.3148 22.2506 76.998 41.8245 73.065 66.3376Z" fill="#B6E1F8"/>
<path d="M78.8269 5.14621C79.8331 10.6342 78.9184 18.226 74.6195 21.7017C70.0461 25.5433 66.0216 24.4457 60.5336 25.7262C54.7712 27.0068 48.8258 27.5556 43.0634 28.6532C39.0389 29.4764 34.2826 29.9337 32.4533 34.2326C29.9837 39.9036 29.5263 47.3124 31.1727 52.8919C32.5447 57.5567 33.0021 62.0385 34.4655 67.9839C29.2519 63.5935 25.1359 57.2823 25.1359 57.2823C22.4834 52.7089 22.4834 52.7089 19.5565 44.6599C17.8186 39.9951 16.3551 35.879 16.0807 31.0313C15.8063 24.8116 18.8247 22.0676 22.1175 16.3966C25.2274 11.0001 29.6178 7.24995 35.3802 5.60355C35.3802 5.60355 64.3752 7.24995 63.8264 0.572876C63.8264 0.572876 70.7779 2.31074 69.4973 6.97555C69.4973 6.97555 76.8147 5.60355 75.2597 0.572876C75.3512 0.572876 78.2781 1.94488 78.8269 5.14621Z" fill="#6078BA"/>
<path d="M32.2706 51.6114C32.2706 51.6114 29.1607 44.8428 24.2215 48.8674C24.2215 48.8674 22.0263 50.6052 24.7703 55.1786C24.7703 55.1786 28.7949 61.7642 33.5511 58.1055L32.2706 51.6114Z" fill="#B6E1F8"/>
<path d="M31.8132 35.7876C31.8132 35.7876 31.8132 47.9527 34.0999 54.4468L31.7217 54.9042C31.7217 54.9042 30.4412 46.5807 26.1423 46.4892L31.8132 35.7876Z" fill="#6078BA"/>
<path d="M26.0507 136.218H0.531433C0.531433 136.218 0.6229 130.181 0.6229 129.724C0.805833 123.779 1.1717 117.742 2.2693 111.888C3.82424 103.473 7.84878 96.0642 16.904 93.869C21.02 92.8629 24.6787 95.4239 26.8739 98.7167C26.8739 98.8082 30.8984 103.839 26.0507 136.218Z" fill="#58C3E7"/>
</svg>
